<?xml version="1.0" encoding="UTF-8" standalone="no"?>
<!DOCTYPE svg PUBLIC "-//W3C//DTD SVG 1.1//EN"
 "http://www.w3.org/Graphics/SVG/1.1/DTD/svg11.dtd">
<!-- Generated by graphviz version 2.43.0 (0)
 -->
<!-- Title: state transitions Pages: 1 -->
<svg width="884pt" height="334pt"
 viewBox="0.00 0.00 883.50 334.00" xmlns="http://www.w3.org/2000/svg" xmlns:xlink="http://www.w3.org/1999/xlink">
<g id="graph0" class="graph" transform="scale(1 1) rotate(0) translate(4 330)">
<title>state transitions</title>
<polygon fill="white" stroke="transparent" points="-4,4 -4,-330 879.5,-330 879.5,4 -4,4"/>
<!-- initial -->
<g id="node1" class="node state initial">
<title>initial</title>
<ellipse fill="black" stroke="black" stroke-width="2" cx="356.5" cy="-320.5" rx="5.5" ry="5.5"/>
</g>
<!-- NoBattery -->
<g id="node2" class="node state regular">
<title>NoBattery</title>
<polygon fill="#ffffff" fill-opacity="0.003922" stroke="transparent" stroke-width="2" points="398,-288 315,-288 315,-252 398,-252 398,-288"/>
<text text-anchor="start" x="326.5" y="-266.4" font-family="Helvetica,sans-Serif" font-size="12.00">NoBattery</text>
<path fill="none" stroke="black" stroke-width="2" d="M327,-253.5C327,-253.5 386,-253.5 386,-253.5 391.5,-253.5 397,-259 397,-264.5 397,-264.5 397,-275.5 397,-275.5 397,-281 391.5,-286.5 386,-286.5 386,-286.5 327,-286.5 327,-286.5 321.5,-286.5 316,-281 316,-275.5 316,-275.5 316,-264.5 316,-264.5 316,-259 321.5,-253.5 327,-253.5"/>
</g>
<!-- initial&#45;&gt;NoBattery -->
<g id="edge1" class="edge transition">
<title>initial&#45;&gt;NoBattery</title>
<path fill="none" stroke="black" d="M356.5,-314.67C356.5,-310.74 356.5,-304.85 356.5,-298.65"/>
<polygon fill="black" stroke="black" points="360,-298.24 356.5,-288.24 353,-298.24 360,-298.24"/>
<text text-anchor="middle" x="358.5" y="-299" font-family="Helvetica,sans-Serif" font-size="10.00"> </text>
</g>
<!-- PreCharging -->
<g id="node3" class="node state regular">
<title>PreCharging</title>
<polygon fill="#ffffff" fill-opacity="0.003922" stroke="transparent" stroke-width="2" points="95,-225 0,-225 0,-189 95,-189 95,-225"/>
<text text-anchor="start" x="11.5" y="-203.4" font-family="Helvetica,sans-Serif" font-size="12.00">PreCharging</text>
<path fill="none" stroke="black" stroke-width="2" d="M12,-190.5C12,-190.5 83,-190.5 83,-190.5 88.5,-190.5 94,-196 94,-201.5 94,-201.5 94,-212.5 94,-212.5 94,-218 88.5,-223.5 83,-223.5 83,-223.5 12,-223.5 12,-223.5 6.5,-223.5 1,-218 1,-212.5 1,-212.5 1,-201.5 1,-201.5 1,-196 6.5,-190.5 12,-190.5"/>
</g>
<!-- NoBattery&#45;&gt;PreCharging -->
<g id="edge2" class="edge transition">
<title>NoBattery&#45;&gt;PreCharging</title>
<path fill="none" stroke="black" d="M314.91,-269.13C226.69,-268.98 27.13,-266.15 6.5,-244 2.9,-240.13 2.81,-236.24 4.89,-232.51"/>
<polygon fill="black" stroke="black" points="7.47,-234.87 11.73,-225.17 2.35,-230.1 7.47,-234.87"/>
<text text-anchor="start" x="6.5" y="-236" font-family="Helvetica,sans-Serif" font-size="10.00">vSense &gt;= BatteryConnectV &#160;&#160;</text>
</g>
<!-- PreCharging&#45;&gt;NoBattery -->
<g id="edge9" class="edge transition">
<title>PreCharging&#45;&gt;NoBattery</title>
<path fill="none" stroke="black" d="M95.1,-216.9C114.65,-221.05 137.37,-226.51 157.5,-233 169.44,-236.85 171.41,-240.63 183.5,-244 223.37,-255.11 269.86,-261.48 304.6,-265.01"/>
<polygon fill="black" stroke="black" points="304.7,-268.53 314.99,-266.01 305.37,-261.56 304.7,-268.53"/>
<text text-anchor="start" x="183.5" y="-236" font-family="Helvetica,sans-Serif" font-size="10.00">vSense &lt; BatteryDisconnectV &#160;&#160;</text>
</g>
<!-- FullCharging -->
<g id="node4" class="node state regular">
<title>FullCharging</title>
<polygon fill="#ffffff" fill-opacity="0.003922" stroke="transparent" stroke-width="2" points="333,-162 238,-162 238,-126 333,-126 333,-162"/>
<text text-anchor="start" x="249.5" y="-140.4" font-family="Helvetica,sans-Serif" font-size="12.00">FullCharging</text>
<path fill="none" stroke="black" stroke-width="2" d="M250,-127.5C250,-127.5 321,-127.5 321,-127.5 326.5,-127.5 332,-133 332,-138.5 332,-138.5 332,-149.5 332,-149.5 332,-155 326.5,-160.5 321,-160.5 321,-160.5 250,-160.5 250,-160.5 244.5,-160.5 239,-155 239,-149.5 239,-149.5 239,-138.5 239,-138.5 239,-133 244.5,-127.5 250,-127.5"/>
</g>
<!-- PreCharging&#45;&gt;FullCharging -->
<g id="edge3" class="edge transition">
<title>PreCharging&#45;&gt;FullCharging</title>
<path fill="none" stroke="black" d="M95.19,-191.66C118.68,-184.78 147.48,-176.61 173.5,-170 191.09,-165.53 210.35,-161.07 227.86,-157.19"/>
<polygon fill="black" stroke="black" points="228.93,-160.54 237.94,-154.97 227.42,-153.7 228.93,-160.54"/>
<text text-anchor="start" x="173.5" y="-173" font-family="Helvetica,sans-Serif" font-size="10.00">vSense &gt;= ChargingThresholdV &#160;&#160;</text>
</g>
<!-- FaultDetected -->
<g id="node7" class="node state regular">
<title>FaultDetected</title>
<polygon fill="#ffffff" fill-opacity="0.003922" stroke="transparent" stroke-width="2" points="433.5,-36 327.5,-36 327.5,0 433.5,0 433.5,-36"/>
<text text-anchor="start" x="338.5" y="-14.4" font-family="Helvetica,sans-Serif" font-size="12.00">FaultDetected</text>
<path fill="none" stroke="black" stroke-width="2" d="M339.5,-1.5C339.5,-1.5 421.5,-1.5 421.5,-1.5 427,-1.5 432.5,-7 432.5,-12.5 432.5,-12.5 432.5,-23.5 432.5,-23.5 432.5,-29 427,-34.5 421.5,-34.5 421.5,-34.5 339.5,-34.5 339.5,-34.5 334,-34.5 328.5,-29 328.5,-23.5 328.5,-23.5 328.5,-12.5 328.5,-12.5 328.5,-7 334,-1.5 339.5,-1.5"/>
</g>
<!-- PreCharging&#45;&gt;FaultDetected -->
<g id="edge6" class="edge transition">
<title>PreCharging&#45;&gt;FaultDetected</title>
<path fill="none" stroke="black" d="M77.93,-188.91C138.35,-154.98 273.4,-79.14 340.74,-41.33"/>
<polygon fill="black" stroke="black" points="342.77,-44.2 349.77,-36.25 339.34,-38.1 342.77,-44.2"/>
<text text-anchor="start" x="221.5" y="-110" font-family="Helvetica,sans-Serif" font-size="10.00">prechargeTimeout &#160;&#160;</text>
</g>
<!-- FullCharging&#45;&gt;NoBattery -->
<g id="edge10" class="edge transition">
<title>FullCharging&#45;&gt;NoBattery</title>
<path fill="none" stroke="black" d="M297.2,-162.1C308.87,-179.53 326.97,-207.54 340.5,-233 342.15,-236.11 343.79,-239.43 345.35,-242.75"/>
<polygon fill="black" stroke="black" points="342.19,-244.24 349.49,-251.92 348.56,-241.36 342.19,-244.24"/>
<text text-anchor="start" x="335.5" y="-204.5" font-family="Helvetica,sans-Serif" font-size="10.00">vSense &lt; BatteryDisconnectV &#160;&#160;</text>
</g>
<!-- TaperCharging -->
<g id="node5" class="node state regular">
<title>TaperCharging</title>
<polygon fill="#ffffff" fill-opacity="0.003922" stroke="transparent" stroke-width="2" points="611,-99 502,-99 502,-63 611,-63 611,-99"/>
<text text-anchor="start" x="513.5" y="-77.4" font-family="Helvetica,sans-Serif" font-size="12.00">TaperCharging</text>
<path fill="none" stroke="black" stroke-width="2" d="M514,-64.5C514,-64.5 599,-64.5 599,-64.5 604.5,-64.5 610,-70 610,-75.5 610,-75.5 610,-86.5 610,-86.5 610,-92 604.5,-97.5 599,-97.5 599,-97.5 514,-97.5 514,-97.5 508.5,-97.5 503,-92 503,-86.5 503,-86.5 503,-75.5 503,-75.5 503,-70 508.5,-64.5 514,-64.5"/>
</g>
<!-- FullCharging&#45;&gt;TaperCharging -->
<g id="edge4" class="edge transition">
<title>FullCharging&#45;&gt;TaperCharging</title>
<path fill="none" stroke="black" d="M323.52,-125.93C340.86,-118.88 361.86,-111.35 381.5,-107 426.33,-97.06 439.13,-106.07 484.5,-99 486.86,-98.63 489.25,-98.23 491.66,-97.8"/>
<polygon fill="black" stroke="black" points="492.48,-101.2 501.64,-95.87 491.16,-94.33 492.48,-101.2"/>
<text text-anchor="start" x="381.5" y="-110" font-family="Helvetica,sans-Serif" font-size="10.00">vSense &gt;= TaperThresholdV &#160;&#160;</text>
</g>
<!-- FullCharging&#45;&gt;FaultDetected -->
<g id="edge7" class="edge transition">
<title>FullCharging&#45;&gt;FaultDetected</title>
<path fill="none" stroke="black" d="M333.05,-136.96C344.85,-133.26 356.41,-127.36 364.5,-118 381.42,-98.41 384.08,-68.18 383.34,-46.28"/>
<polygon fill="black" stroke="black" points="386.83,-46.06 382.75,-36.28 379.85,-46.47 386.83,-46.06"/>
<text text-anchor="start" x="382.5" y="-78.5" font-family="Helvetica,sans-Serif" font-size="10.00">fullchargeTimeout &#160;&#160;</text>
</g>
<!-- TaperCharging&#45;&gt;NoBattery -->
<g id="edge11" class="edge transition">
<title>TaperCharging&#45;&gt;NoBattery</title>
<path fill="none" stroke="black" d="M554.05,-99.22C548.89,-129.12 534.11,-190.73 496.5,-225 472.33,-247.03 437.2,-258.03 408.17,-263.52"/>
<polygon fill="black" stroke="black" points="407.45,-260.09 398.19,-265.24 408.64,-266.99 407.45,-260.09"/>
<text text-anchor="start" x="532.5" y="-173" font-family="Helvetica,sans-Serif" font-size="10.00">vSense &lt; BatteryDisconnectV &#160;&#160;</text>
</g>
<!-- ChargingComplete -->
<g id="node6" class="node state regular">
<title>ChargingComplete</title>
<polygon fill="#ffffff" fill-opacity="0.003922" stroke="transparent" stroke-width="2" points="687.5,-36 553.5,-36 553.5,0 687.5,0 687.5,-36"/>
<text text-anchor="start" x="564.5" y="-14.4" font-family="Helvetica,sans-Serif" font-size="12.00">ChargingComplete</text>
<path fill="none" stroke="black" stroke-width="2" d="M565.5,-1.5C565.5,-1.5 675.5,-1.5 675.5,-1.5 681,-1.5 686.5,-7 686.5,-12.5 686.5,-12.5 686.5,-23.5 686.5,-23.5 686.5,-29 681,-34.5 675.5,-34.5 675.5,-34.5 565.5,-34.5 565.5,-34.5 560,-34.5 554.5,-29 554.5,-23.5 554.5,-23.5 554.5,-12.5 554.5,-12.5 554.5,-7 560,-1.5 565.5,-1.5"/>
</g>
<!-- TaperCharging&#45;&gt;ChargingComplete -->
<g id="edge5" class="edge transition">
<title>TaperCharging&#45;&gt;ChargingComplete</title>
<path fill="none" stroke="black" d="M501.99,-66.47C496.1,-65.2 490.19,-64.02 484.5,-63 470.17,-60.44 429.14,-65.9 419.5,-55 416.26,-51.34 416.26,-47.66 419.5,-44 423.75,-39.19 488.45,-31.74 543.32,-26.23"/>
<polygon fill="black" stroke="black" points="543.83,-29.69 553.43,-25.22 543.14,-22.73 543.83,-29.69"/>
<text text-anchor="start" x="419.5" y="-47" font-family="Helvetica,sans-Serif" font-size="10.00">cSense &lt; ChargeCompleteC &#160;&#160;</text>
</g>
<!-- TaperCharging&#45;&gt;FaultDetected -->
<g id="edge8" class="edge transition">
<title>TaperCharging&#45;&gt;FaultDetected</title>
<path fill="none" stroke="black" d="M568.1,-62.77C570.96,-56.28 572.06,-49.21 567.5,-44 563.35,-39.25 496.46,-31.16 443.85,-25.48"/>
<polygon fill="black" stroke="black" points="444.2,-21.99 433.88,-24.41 443.45,-28.95 444.2,-21.99"/>
<text text-anchor="start" x="570.5" y="-47" font-family="Helvetica,sans-Serif" font-size="10.00">taperchargeTimeout &#160;&#160;</text>
</g>
<!-- ChargingComplete&#45;&gt;NoBattery -->
<g id="edge12" class="edge transition">
<title>ChargingComplete&#45;&gt;NoBattery</title>
<path fill="none" stroke="black" d="M684.32,-36.04C703.47,-45.27 719.5,-59.21 719.5,-80 719.5,-208 719.5,-208 719.5,-208 719.5,-239.17 508.68,-258.26 408.36,-265.58"/>
<polygon fill="black" stroke="black" points="407.86,-262.1 398.14,-266.31 408.37,-269.09 407.86,-262.1"/>
<text text-anchor="start" x="719.5" y="-141.5" font-family="Helvetica,sans-Serif" font-size="10.00">vSense &lt; BatteryDisconnectV &#160;&#160;</text>
</g>
</g>
</svg>
