<?xml version="1.0" encoding="UTF-8" standalone="no"?>
<!DOCTYPE svg PUBLIC "-//W3C//DTD SVG 1.1//EN"
 "http://www.w3.org/Graphics/SVG/1.1/DTD/svg11.dtd">
<!-- Generated by graphviz version 2.43.0 (0)
 -->
<!-- Title: state transitions Pages: 1 -->
<svg width="597pt" height="450pt"
 viewBox="0.00 0.00 597.00 450.00" xmlns="http://www.w3.org/2000/svg" xmlns:xlink="http://www.w3.org/1999/xlink">
<g id="graph0" class="graph" transform="scale(1 1) rotate(0) translate(4 446)">
<title>state transitions</title>
<polygon fill="white" stroke="transparent" points="-4,4 -4,-446 593,-446 593,4 -4,4"/>
<g id="clust1" class="cluster state regular">
<title>cluster_USBPowerOk</title>
<path fill="none" stroke="black" stroke-width="2" d="M20,-8C20,-8 404,-8 404,-8 410,-8 416,-14 416,-20 416,-20 416,-329 416,-329 416,-335 410,-341 404,-341 404,-341 20,-341 20,-341 14,-341 8,-335 8,-329 8,-329 8,-20 8,-20 8,-14 14,-8 20,-8"/>
<text text-anchor="start" x="173" y="-322.9" font-family="Helvetica,sans-Serif" font-size="12.00">USBPowerOk</text>
</g>
<!-- initial -->
<g id="node1" class="node state initial">
<title>initial</title>
<ellipse fill="black" stroke="black" stroke-width="2" cx="375" cy="-436.5" rx="5.5" ry="5.5"/>
</g>
<!-- USBPowerBad -->
<g id="node2" class="node state regular">
<title>USBPowerBad</title>
<polygon fill="#ffffff" fill-opacity="0.003922" stroke="transparent" stroke-width="2" points="428.5,-404 321.5,-404 321.5,-368 428.5,-368 428.5,-404"/>
<text text-anchor="start" x="333" y="-382.4" font-family="Helvetica,sans-Serif" font-size="12.00">USBPowerBad</text>
<path fill="none" stroke="black" stroke-width="2" d="M333.5,-369.5C333.5,-369.5 416.5,-369.5 416.5,-369.5 422,-369.5 427.5,-375 427.5,-380.5 427.5,-380.5 427.5,-391.5 427.5,-391.5 427.5,-397 422,-402.5 416.5,-402.5 416.5,-402.5 333.5,-402.5 333.5,-402.5 328,-402.5 322.5,-397 322.5,-391.5 322.5,-391.5 322.5,-380.5 322.5,-380.5 322.5,-375 328,-369.5 333.5,-369.5"/>
</g>
<!-- initial&#45;&gt;USBPowerBad -->
<g id="edge1" class="edge transition">
<title>initial&#45;&gt;USBPowerBad</title>
<path fill="none" stroke="black" d="M375,-430.67C375,-426.74 375,-420.85 375,-414.65"/>
<polygon fill="black" stroke="black" points="378.5,-414.24 375,-404.24 371.5,-414.24 378.5,-414.24"/>
<text text-anchor="middle" x="377" y="-415" font-family="Helvetica,sans-Serif" font-size="10.00"> </text>
</g>
<!-- NoBattery -->
<g id="node4" class="node state regular">
<title>NoBattery</title>
<polygon fill="#ffffff" fill-opacity="0.003922" stroke="transparent" stroke-width="2" points="374.5,-304 291.5,-304 291.5,-268 374.5,-268 374.5,-304"/>
<text text-anchor="start" x="303" y="-282.4" font-family="Helvetica,sans-Serif" font-size="12.00">NoBattery</text>
<path fill="none" stroke="black" stroke-width="2" d="M303.5,-269.5C303.5,-269.5 362.5,-269.5 362.5,-269.5 368,-269.5 373.5,-275 373.5,-280.5 373.5,-280.5 373.5,-291.5 373.5,-291.5 373.5,-297 368,-302.5 362.5,-302.5 362.5,-302.5 303.5,-302.5 303.5,-302.5 298,-302.5 292.5,-297 292.5,-291.5 292.5,-291.5 292.5,-280.5 292.5,-280.5 292.5,-275 298,-269.5 303.5,-269.5"/>
</g>
<!-- USBPowerBad&#45;&gt;NoBattery -->
<g id="edge2" class="edge transition">
<title>USBPowerBad&#45;&gt;NoBattery</title>
<path fill="none" stroke="black" d="M325.67,-367.64C323.12,-365.39 320.85,-362.86 319,-360 310.16,-346.37 313.4,-328.48 318.98,-313.82"/>
<polygon fill="black" stroke="black" points="322.35,-314.85 323.1,-304.29 315.92,-312.08 322.35,-314.85"/>
<text text-anchor="start" x="319" y="-352" font-family="Helvetica,sans-Serif" font-size="10.00">USB power ok &#160;&#160;</text>
</g>
<!-- USBPowerOk -->
<!-- USBPowerOk&#45;&gt;USBPowerBad -->
<g id="edge3" class="edge transition">
<title>USBPowerOk&#45;&gt;USBPowerBad</title>
<path fill="none" stroke="black" d="M406.5,-341C405.22,-346.71 403.49,-352.56 401.18,-358.35"/>
<polygon fill="black" stroke="black" points="397.85,-357.22 396.85,-367.77 404.21,-360.14 397.85,-357.22"/>
<text text-anchor="start" x="405" y="-352" font-family="Helvetica,sans-Serif" font-size="10.00">USB power bad &#160;&#160;</text>
</g>
<!-- PreCharging -->
<g id="node5" class="node state regular">
<title>PreCharging</title>
<polygon fill="#ffffff" fill-opacity="0.003922" stroke="transparent" stroke-width="2" points="111.5,-241 16.5,-241 16.5,-205 111.5,-205 111.5,-241"/>
<text text-anchor="start" x="28" y="-219.4" font-family="Helvetica,sans-Serif" font-size="12.00">PreCharging</text>
<path fill="none" stroke="black" stroke-width="2" d="M28.5,-206.5C28.5,-206.5 99.5,-206.5 99.5,-206.5 105,-206.5 110.5,-212 110.5,-217.5 110.5,-217.5 110.5,-228.5 110.5,-228.5 110.5,-234 105,-239.5 99.5,-239.5 99.5,-239.5 28.5,-239.5 28.5,-239.5 23,-239.5 17.5,-234 17.5,-228.5 17.5,-228.5 17.5,-217.5 17.5,-217.5 17.5,-212 23,-206.5 28.5,-206.5"/>
</g>
<!-- NoBattery&#45;&gt;PreCharging -->
<g id="edge4" class="edge transition">
<title>NoBattery&#45;&gt;PreCharging</title>
<path fill="none" stroke="black" d="M291.24,-284.52C213.93,-283.2 54.78,-278.26 38,-260 35.09,-256.83 34.68,-253.34 35.83,-249.81"/>
<polygon fill="black" stroke="black" points="38.93,-251.45 41.32,-241.12 33.01,-247.7 38.93,-251.45"/>
<text text-anchor="start" x="38" y="-252" font-family="Helvetica,sans-Serif" font-size="10.00">vSense &gt;= BatteryConnectV &#160;&#160;</text>
</g>
<!-- PreCharging&#45;&gt;NoBattery -->
<g id="edge11" class="edge transition">
<title>PreCharging&#45;&gt;NoBattery</title>
<path fill="none" stroke="black" d="M111.75,-231.21C135.29,-235.35 163.94,-241.28 189,-249 200.99,-252.69 203.03,-256.24 215,-260 236.37,-266.72 260.49,-272.19 281.33,-276.28"/>
<polygon fill="black" stroke="black" points="280.79,-279.74 291.27,-278.18 282.1,-272.86 280.79,-279.74"/>
<text text-anchor="start" x="215" y="-252" font-family="Helvetica,sans-Serif" font-size="10.00">vSense &lt; BatteryDisconnectV &#160;&#160;</text>
</g>
<!-- FullCharging -->
<g id="node6" class="node state regular">
<title>FullCharging</title>
<polygon fill="#ffffff" fill-opacity="0.003922" stroke="transparent" stroke-width="2" points="183.5,-178 88.5,-178 88.5,-142 183.5,-142 183.5,-178"/>
<text text-anchor="start" x="100" y="-156.4" font-family="Helvetica,sans-Serif" font-size="12.00">FullCharging</text>
<path fill="none" stroke="black" stroke-width="2" d="M100.5,-143.5C100.5,-143.5 171.5,-143.5 171.5,-143.5 177,-143.5 182.5,-149 182.5,-154.5 182.5,-154.5 182.5,-165.5 182.5,-165.5 182.5,-171 177,-176.5 171.5,-176.5 171.5,-176.5 100.5,-176.5 100.5,-176.5 95,-176.5 89.5,-171 89.5,-165.5 89.5,-165.5 89.5,-154.5 89.5,-154.5 89.5,-149 95,-143.5 100.5,-143.5"/>
</g>
<!-- PreCharging&#45;&gt;FullCharging -->
<g id="edge5" class="edge transition">
<title>PreCharging&#45;&gt;FullCharging</title>
<path fill="none" stroke="black" d="M46.9,-204.81C42.76,-198.61 40.63,-191.73 45,-186 53.15,-175.31 65.43,-168.9 78.35,-165.13"/>
<polygon fill="black" stroke="black" points="79.4,-168.48 88.3,-162.73 77.76,-161.67 79.4,-168.48"/>
<text text-anchor="start" x="45" y="-189" font-family="Helvetica,sans-Serif" font-size="10.00">vSense &gt;= ChargingThresholdV &#160;&#160;</text>
</g>
<!-- FaultDetected -->
<g id="node9" class="node state regular">
<title>FaultDetected</title>
<polygon fill="#ffffff" fill-opacity="0.003922" stroke="transparent" stroke-width="2" points="136,-52 30,-52 30,-16 136,-16 136,-52"/>
<text text-anchor="start" x="41" y="-30.4" font-family="Helvetica,sans-Serif" font-size="12.00">FaultDetected</text>
<path fill="none" stroke="black" stroke-width="2" d="M42,-17.5C42,-17.5 124,-17.5 124,-17.5 129.5,-17.5 135,-23 135,-28.5 135,-28.5 135,-39.5 135,-39.5 135,-45 129.5,-50.5 124,-50.5 124,-50.5 42,-50.5 42,-50.5 36.5,-50.5 31,-45 31,-39.5 31,-39.5 31,-28.5 31,-28.5 31,-23 36.5,-17.5 42,-17.5"/>
</g>
<!-- PreCharging&#45;&gt;FaultDetected -->
<g id="edge8" class="edge transition">
<title>PreCharging&#45;&gt;FaultDetected</title>
<path fill="none" stroke="black" d="M42.9,-204.71C40.97,-202.31 39.26,-199.73 38,-197 24.14,-167.12 25.72,-154.88 34,-123 39.86,-100.44 52.9,-77.51 64.06,-60.72"/>
<polygon fill="black" stroke="black" points="67.23,-62.28 70.01,-52.06 61.46,-58.32 67.23,-62.28"/>
<text text-anchor="start" x="34" y="-126" font-family="Helvetica,sans-Serif" font-size="10.00">prechargeTimeout &#160;&#160;</text>
</g>
<!-- FullCharging&#45;&gt;NoBattery -->
<g id="edge12" class="edge transition">
<title>FullCharging&#45;&gt;NoBattery</title>
<path fill="none" stroke="black" d="M183.69,-172.4C196.38,-176.35 207.76,-181.04 212,-186 228.1,-204.82 202.55,-224.47 221,-241 233.51,-252.21 360.44,-236.81 372,-249 375.61,-252.81 375.69,-256.71 373.61,-260.47"/>
<polygon fill="black" stroke="black" points="370.97,-258.17 366.79,-267.91 376.13,-262.9 370.97,-258.17"/>
<text text-anchor="start" x="221" y="-220.5" font-family="Helvetica,sans-Serif" font-size="10.00">vSense &lt; BatteryDisconnectV &#160;&#160;</text>
</g>
<!-- TaperCharging -->
<g id="node7" class="node state regular">
<title>TaperCharging</title>
<polygon fill="#ffffff" fill-opacity="0.003922" stroke="transparent" stroke-width="2" points="313.5,-115 204.5,-115 204.5,-79 313.5,-79 313.5,-115"/>
<text text-anchor="start" x="216" y="-93.4" font-family="Helvetica,sans-Serif" font-size="12.00">TaperCharging</text>
<path fill="none" stroke="black" stroke-width="2" d="M216.5,-80.5C216.5,-80.5 301.5,-80.5 301.5,-80.5 307,-80.5 312.5,-86 312.5,-91.5 312.5,-91.5 312.5,-102.5 312.5,-102.5 312.5,-108 307,-113.5 301.5,-113.5 301.5,-113.5 216.5,-113.5 216.5,-113.5 211,-113.5 205.5,-108 205.5,-102.5 205.5,-102.5 205.5,-91.5 205.5,-91.5 205.5,-86 211,-80.5 216.5,-80.5"/>
</g>
<!-- FullCharging&#45;&gt;TaperCharging -->
<g id="edge6" class="edge transition">
<title>FullCharging&#45;&gt;TaperCharging</title>
<path fill="none" stroke="black" d="M149.46,-141.65C155.42,-134.99 162.92,-127.83 171,-123 178.25,-118.67 186.29,-115.06 194.48,-112.06"/>
<polygon fill="black" stroke="black" points="195.75,-115.32 204.11,-108.81 193.52,-108.69 195.75,-115.32"/>
<text text-anchor="start" x="171" y="-126" font-family="Helvetica,sans-Serif" font-size="10.00">vSense &gt;= TaperThresholdV &#160;&#160;</text>
</g>
<!-- FullCharging&#45;&gt;FaultDetected -->
<g id="edge9" class="edge transition">
<title>FullCharging&#45;&gt;FaultDetected</title>
<path fill="none" stroke="black" d="M141.62,-141.66C142.63,-135.15 142.24,-128.1 138,-123 125.58,-108.05 108.5,-128.98 95,-115 81.75,-101.28 79.18,-79.6 79.69,-62.27"/>
<polygon fill="black" stroke="black" points="83.19,-62.35 80.34,-52.15 76.21,-61.91 83.19,-62.35"/>
<text text-anchor="start" x="95" y="-94.5" font-family="Helvetica,sans-Serif" font-size="10.00">fullchargeTimeout &#160;&#160;</text>
</g>
<!-- TaperCharging&#45;&gt;NoBattery -->
<g id="edge13" class="edge transition">
<title>TaperCharging&#45;&gt;NoBattery</title>
<path fill="none" stroke="black" d="M313.76,-114.43C322.73,-119.75 327.07,-126.31 320,-134 305.66,-149.6 239.34,-126.4 225,-142 214.17,-153.78 218.69,-163.3 225,-178 229.84,-189.27 233.76,-192.11 245,-197 258.58,-202.9 367.73,-194.34 378,-205 404.09,-232.08 385.88,-248.43 379,-260 378.94,-260.09 378.89,-260.19 378.83,-260.28"/>
<polygon fill="black" stroke="black" points="376.15,-258.03 372.42,-267.95 381.52,-262.52 376.15,-258.03"/>
<text text-anchor="start" x="245" y="-189" font-family="Helvetica,sans-Serif" font-size="10.00">vSense &lt; BatteryDisconnectV &#160;&#160;</text>
</g>
<!-- ChargingComplete -->
<g id="node8" class="node state regular">
<title>ChargingComplete</title>
<polygon fill="#ffffff" fill-opacity="0.003922" stroke="transparent" stroke-width="2" points="361,-52 227,-52 227,-16 361,-16 361,-52"/>
<text text-anchor="start" x="238" y="-30.4" font-family="Helvetica,sans-Serif" font-size="12.00">ChargingComplete</text>
<path fill="none" stroke="black" stroke-width="2" d="M239,-17.5C239,-17.5 349,-17.5 349,-17.5 354.5,-17.5 360,-23 360,-28.5 360,-28.5 360,-39.5 360,-39.5 360,-45 354.5,-50.5 349,-50.5 349,-50.5 239,-50.5 239,-50.5 233.5,-50.5 228,-45 228,-39.5 228,-39.5 228,-28.5 228,-28.5 228,-23 233.5,-17.5 239,-17.5"/>
</g>
<!-- TaperCharging&#45;&gt;ChargingComplete -->
<g id="edge7" class="edge transition">
<title>TaperCharging&#45;&gt;ChargingComplete</title>
<path fill="none" stroke="black" d="M247.44,-78.84C245.4,-74.15 244.21,-69.06 248.01,-61.02"/>
<polygon fill="black" stroke="black" points="251.09,-62.69 253.32,-52.34 245.12,-59.04 251.09,-62.69"/>
<text text-anchor="start" x="247" y="-63" font-family="Helvetica,sans-Serif" font-size="10.00">cSense &lt; ChargeCompleteC &#160;&#160;</text>
</g>
<!-- TaperCharging&#45;&gt;FaultDetected -->
<g id="edge10" class="edge transition">
<title>TaperCharging&#45;&gt;FaultDetected</title>
<path fill="none" stroke="black" d="M204.47,-82.57C198.59,-81.28 192.68,-80.07 187,-79 161.86,-74.28 153.6,-80.88 130,-71 122.53,-67.87 115.21,-63.26 108.66,-58.38"/>
<polygon fill="black" stroke="black" points="110.81,-55.62 100.8,-52.14 106.45,-61.1 110.81,-55.62"/>
<text text-anchor="start" x="130" y="-63" font-family="Helvetica,sans-Serif" font-size="10.00">taperchargeTimeout &#160;&#160;</text>
</g>
<!-- ChargingComplete&#45;&gt;NoBattery -->
<g id="edge14" class="edge transition">
<title>ChargingComplete&#45;&gt;NoBattery</title>
<path fill="none" stroke="black" d="M361.12,-45.32C376.56,-49.07 389.96,-53.91 395,-60 451.74,-128.49 444.03,-190.92 388,-260 386.52,-261.82 384.89,-263.51 383.13,-265.09"/>
<polygon fill="black" stroke="black" points="380.73,-262.5 374.75,-271.25 384.88,-268.14 380.73,-262.5"/>
<text text-anchor="start" x="433" y="-157.5" font-family="Helvetica,sans-Serif" font-size="10.00">vSense &lt; BatteryDisconnectV &#160;&#160;</text>
</g>
</g>
</svg>
